<mxfile host="Electron" modified="2024-05-30T10:03:21.740Z" agent="Mozilla/5.0 (Windows NT 10.0; Win64; x64) AppleWebKit/537.36 (KHTML, like Gecko) draw.io/24.2.5 Chrome/120.0.6099.109 Electron/28.1.0 Safari/537.36" etag="HrzN-N4o98KP2h_kmKw1" version="24.2.5" type="device">
  <diagram name="Página-1" id="oI9iN8Y7FuCkDkrSsUU-">
    <mxGraphModel dx="989" dy="577" grid="1" gridSize="10" guides="1" tooltips="1" connect="1" arrows="1" fold="1" page="1" pageScale="1" pageWidth="827" pageHeight="1169" math="0" shadow="0">
      <root>
        <mxCell id="0" />
        <mxCell id="1" parent="0" />
        <mxCell id="PYw2qmqrc_JufpcAPU8h-1" value="&lt;font style=&quot;font-size: 14px;&quot;&gt;Add noise (low power)&lt;/font&gt;" style="rounded=0;whiteSpace=wrap;html=1;" vertex="1" parent="1">
          <mxGeometry x="334" y="370" width="116" height="50" as="geometry" />
        </mxCell>
        <mxCell id="PYw2qmqrc_JufpcAPU8h-2" value="&lt;font style=&quot;font-size: 14px;&quot;&gt;Clear Signal&lt;/font&gt;" style="text;html=1;align=center;verticalAlign=middle;whiteSpace=wrap;rounded=0;" vertex="1" parent="1">
          <mxGeometry x="170" y="425" width="90" height="30" as="geometry" />
        </mxCell>
        <mxCell id="PYw2qmqrc_JufpcAPU8h-3" value="&lt;font style=&quot;font-size: 14px;&quot;&gt;Add Noise (high powe)&lt;/font&gt;" style="rounded=0;whiteSpace=wrap;html=1;" vertex="1" parent="1">
          <mxGeometry x="334" y="460" width="116" height="50" as="geometry" />
        </mxCell>
        <mxCell id="PYw2qmqrc_JufpcAPU8h-4" value="" style="endArrow=classic;html=1;rounded=0;exitX=1;exitY=0.5;exitDx=0;exitDy=0;entryX=0;entryY=0.5;entryDx=0;entryDy=0;" edge="1" parent="1" source="PYw2qmqrc_JufpcAPU8h-2" target="PYw2qmqrc_JufpcAPU8h-1">
          <mxGeometry width="50" height="50" relative="1" as="geometry">
            <mxPoint x="390" y="430" as="sourcePoint" />
            <mxPoint x="440" y="380" as="targetPoint" />
          </mxGeometry>
        </mxCell>
        <mxCell id="PYw2qmqrc_JufpcAPU8h-5" value="" style="endArrow=classic;html=1;rounded=0;exitX=1;exitY=0.5;exitDx=0;exitDy=0;entryX=0;entryY=0.5;entryDx=0;entryDy=0;" edge="1" parent="1" source="PYw2qmqrc_JufpcAPU8h-2" target="PYw2qmqrc_JufpcAPU8h-3">
          <mxGeometry width="50" height="50" relative="1" as="geometry">
            <mxPoint x="390" y="430" as="sourcePoint" />
            <mxPoint x="440" y="380" as="targetPoint" />
          </mxGeometry>
        </mxCell>
        <mxCell id="PYw2qmqrc_JufpcAPU8h-7" value="" style="endArrow=classic;html=1;rounded=0;" edge="1" parent="1">
          <mxGeometry width="50" height="50" relative="1" as="geometry">
            <mxPoint x="450" y="394.5" as="sourcePoint" />
            <mxPoint x="490" y="395" as="targetPoint" />
          </mxGeometry>
        </mxCell>
        <mxCell id="PYw2qmqrc_JufpcAPU8h-8" value="" style="endArrow=classic;html=1;rounded=0;entryX=0;entryY=0.75;entryDx=0;entryDy=0;" edge="1" parent="1" target="PYw2qmqrc_JufpcAPU8h-11">
          <mxGeometry width="50" height="50" relative="1" as="geometry">
            <mxPoint x="450" y="484.5" as="sourcePoint" />
            <mxPoint x="610" y="485" as="targetPoint" />
            <Array as="points">
              <mxPoint x="650" y="485" />
              <mxPoint x="650" y="455" />
            </Array>
          </mxGeometry>
        </mxCell>
        <mxCell id="PYw2qmqrc_JufpcAPU8h-10" value="&lt;font style=&quot;font-size: 14px;&quot;&gt;Add distortion&lt;/font&gt;" style="rounded=0;whiteSpace=wrap;html=1;" vertex="1" parent="1">
          <mxGeometry x="490" y="370" width="116" height="50" as="geometry" />
        </mxCell>
        <mxCell id="PYw2qmqrc_JufpcAPU8h-11" value="&lt;font style=&quot;font-size: 14px;&quot;&gt;Neural Network&lt;/font&gt;" style="rounded=0;whiteSpace=wrap;html=1;" vertex="1" parent="1">
          <mxGeometry x="690" y="410" width="120" height="60" as="geometry" />
        </mxCell>
        <mxCell id="PYw2qmqrc_JufpcAPU8h-12" value="" style="endArrow=classic;html=1;rounded=0;exitX=1;exitY=0.5;exitDx=0;exitDy=0;entryX=0;entryY=0.25;entryDx=0;entryDy=0;" edge="1" parent="1" source="PYw2qmqrc_JufpcAPU8h-10" target="PYw2qmqrc_JufpcAPU8h-11">
          <mxGeometry width="50" height="50" relative="1" as="geometry">
            <mxPoint x="500" y="450" as="sourcePoint" />
            <mxPoint x="550" y="400" as="targetPoint" />
            <Array as="points">
              <mxPoint x="650" y="395" />
              <mxPoint x="650" y="425" />
            </Array>
          </mxGeometry>
        </mxCell>
        <mxCell id="PYw2qmqrc_JufpcAPU8h-13" value="&lt;font style=&quot;font-size: 14px;&quot;&gt;HDR&lt;/font&gt;" style="text;html=1;align=center;verticalAlign=middle;whiteSpace=wrap;rounded=0;" vertex="1" parent="1">
          <mxGeometry x="450" y="490" width="100" height="30" as="geometry" />
        </mxCell>
        <mxCell id="PYw2qmqrc_JufpcAPU8h-14" value="&lt;font style=&quot;font-size: 14px;&quot;&gt;HSNR&lt;/font&gt;" style="text;html=1;align=center;verticalAlign=middle;whiteSpace=wrap;rounded=0;" vertex="1" parent="1">
          <mxGeometry x="590" y="360" width="100" height="30" as="geometry" />
        </mxCell>
        <mxCell id="PYw2qmqrc_JufpcAPU8h-17" value="&lt;font style=&quot;font-size: 14px;&quot;&gt;x&lt;/font&gt;" style="ellipse;whiteSpace=wrap;html=1;aspect=fixed;" vertex="1" parent="1">
          <mxGeometry x="860" y="448" width="37" height="37" as="geometry" />
        </mxCell>
        <mxCell id="PYw2qmqrc_JufpcAPU8h-18" value="&lt;font style=&quot;font-size: 14px;&quot;&gt;x&lt;/font&gt;" style="ellipse;whiteSpace=wrap;html=1;aspect=fixed;" vertex="1" parent="1">
          <mxGeometry x="860" y="395" width="37" height="37" as="geometry" />
        </mxCell>
        <mxCell id="PYw2qmqrc_JufpcAPU8h-22" value="" style="endArrow=classic;html=1;rounded=0;exitX=1;exitY=0.25;exitDx=0;exitDy=0;entryX=0;entryY=0.5;entryDx=0;entryDy=0;" edge="1" parent="1" source="PYw2qmqrc_JufpcAPU8h-11" target="PYw2qmqrc_JufpcAPU8h-18">
          <mxGeometry width="50" height="50" relative="1" as="geometry">
            <mxPoint x="690" y="440" as="sourcePoint" />
            <mxPoint x="740" y="390" as="targetPoint" />
          </mxGeometry>
        </mxCell>
        <mxCell id="PYw2qmqrc_JufpcAPU8h-23" value="" style="endArrow=classic;html=1;rounded=0;exitX=1;exitY=0.75;exitDx=0;exitDy=0;entryX=0;entryY=0.5;entryDx=0;entryDy=0;" edge="1" parent="1" source="PYw2qmqrc_JufpcAPU8h-11" target="PYw2qmqrc_JufpcAPU8h-17">
          <mxGeometry width="50" height="50" relative="1" as="geometry">
            <mxPoint x="830" y="510" as="sourcePoint" />
            <mxPoint x="860" y="560" as="targetPoint" />
          </mxGeometry>
        </mxCell>
        <mxCell id="PYw2qmqrc_JufpcAPU8h-25" value="&lt;font style=&quot;font-size: 14px;&quot;&gt;1-&lt;span style=&quot;background-color: initial;&quot;&gt;α&lt;/span&gt;&lt;/font&gt;" style="text;html=1;align=center;verticalAlign=middle;whiteSpace=wrap;rounded=0;" vertex="1" parent="1">
          <mxGeometry x="817.5" y="470" width="30" height="20" as="geometry" />
        </mxCell>
        <mxCell id="PYw2qmqrc_JufpcAPU8h-26" value="&lt;span style=&quot;background-color: initial;&quot;&gt;&lt;font style=&quot;font-size: 14px;&quot;&gt;α&lt;/font&gt;&lt;/span&gt;" style="text;html=1;align=center;verticalAlign=middle;whiteSpace=wrap;rounded=0;" vertex="1" parent="1">
          <mxGeometry x="817.5" y="390" width="30" height="20" as="geometry" />
        </mxCell>
        <mxCell id="PYw2qmqrc_JufpcAPU8h-27" value="" style="endArrow=classic;html=1;rounded=0;entryX=0.5;entryY=0;entryDx=0;entryDy=0;" edge="1" parent="1" target="PYw2qmqrc_JufpcAPU8h-18">
          <mxGeometry width="50" height="50" relative="1" as="geometry">
            <mxPoint x="650" y="395" as="sourcePoint" />
            <mxPoint x="650" y="380" as="targetPoint" />
            <Array as="points">
              <mxPoint x="760" y="395" />
              <mxPoint x="760" y="360" />
              <mxPoint x="880" y="360" />
            </Array>
          </mxGeometry>
        </mxCell>
        <mxCell id="PYw2qmqrc_JufpcAPU8h-28" value="" style="endArrow=classic;html=1;rounded=0;entryX=0.5;entryY=1;entryDx=0;entryDy=0;" edge="1" parent="1" target="PYw2qmqrc_JufpcAPU8h-17">
          <mxGeometry width="50" height="50" relative="1" as="geometry">
            <mxPoint x="650" y="485" as="sourcePoint" />
            <mxPoint x="650" y="380" as="targetPoint" />
            <Array as="points">
              <mxPoint x="760" y="485" />
              <mxPoint x="760" y="520" />
              <mxPoint x="880" y="520" />
            </Array>
          </mxGeometry>
        </mxCell>
        <mxCell id="PYw2qmqrc_JufpcAPU8h-30" value="&lt;font style=&quot;font-size: 14px;&quot;&gt;+&lt;/font&gt;" style="ellipse;whiteSpace=wrap;html=1;aspect=fixed;" vertex="1" parent="1">
          <mxGeometry x="940" y="425" width="37" height="37" as="geometry" />
        </mxCell>
        <mxCell id="PYw2qmqrc_JufpcAPU8h-32" value="" style="endArrow=classic;html=1;rounded=0;exitX=1;exitY=0.5;exitDx=0;exitDy=0;entryX=0;entryY=0;entryDx=0;entryDy=0;" edge="1" parent="1" source="PYw2qmqrc_JufpcAPU8h-18" target="PYw2qmqrc_JufpcAPU8h-30">
          <mxGeometry width="50" height="50" relative="1" as="geometry">
            <mxPoint x="780" y="400" as="sourcePoint" />
            <mxPoint x="830" y="350" as="targetPoint" />
          </mxGeometry>
        </mxCell>
        <mxCell id="PYw2qmqrc_JufpcAPU8h-33" value="" style="endArrow=classic;html=1;rounded=0;exitX=1;exitY=0.5;exitDx=0;exitDy=0;entryX=0;entryY=1;entryDx=0;entryDy=0;" edge="1" parent="1" source="PYw2qmqrc_JufpcAPU8h-17" target="PYw2qmqrc_JufpcAPU8h-30">
          <mxGeometry width="50" height="50" relative="1" as="geometry">
            <mxPoint x="780" y="400" as="sourcePoint" />
            <mxPoint x="830" y="350" as="targetPoint" />
          </mxGeometry>
        </mxCell>
        <mxCell id="PYw2qmqrc_JufpcAPU8h-34" value="RMS error (Cost)" style="rounded=0;whiteSpace=wrap;html=1;" vertex="1" parent="1">
          <mxGeometry x="774" y="282" width="120" height="50" as="geometry" />
        </mxCell>
        <mxCell id="PYw2qmqrc_JufpcAPU8h-35" value="" style="endArrow=classic;html=1;rounded=0;exitX=1;exitY=0.5;exitDx=0;exitDy=0;entryX=0;entryY=0.5;entryDx=0;entryDy=0;" edge="1" parent="1" source="PYw2qmqrc_JufpcAPU8h-30" target="PYw2qmqrc_JufpcAPU8h-36">
          <mxGeometry width="50" height="50" relative="1" as="geometry">
            <mxPoint x="1020" y="455" as="sourcePoint" />
            <mxPoint x="1010" y="444" as="targetPoint" />
          </mxGeometry>
        </mxCell>
        <mxCell id="PYw2qmqrc_JufpcAPU8h-36" value="&lt;font style=&quot;font-size: 14px;&quot;&gt;Predicted signal&lt;/font&gt;" style="text;html=1;align=center;verticalAlign=middle;whiteSpace=wrap;rounded=0;" vertex="1" parent="1">
          <mxGeometry x="1010" y="428.5" width="70" height="30" as="geometry" />
        </mxCell>
        <mxCell id="PYw2qmqrc_JufpcAPU8h-37" value="" style="endArrow=classic;dashed=1;html=1;rounded=0;entryX=1;entryY=0.5;entryDx=0;entryDy=0;endFill=1;" edge="1" parent="1" target="PYw2qmqrc_JufpcAPU8h-34">
          <mxGeometry width="50" height="50" relative="1" as="geometry">
            <mxPoint x="990" y="440" as="sourcePoint" />
            <mxPoint x="1050" y="300" as="targetPoint" />
            <Array as="points">
              <mxPoint x="990" y="307" />
            </Array>
          </mxGeometry>
        </mxCell>
        <mxCell id="PYw2qmqrc_JufpcAPU8h-38" value="" style="ellipse;whiteSpace=wrap;html=1;aspect=fixed;strokeColor=none;fillColor=#000000;" vertex="1" parent="1">
          <mxGeometry x="645" y="390" width="10" height="10" as="geometry" />
        </mxCell>
        <mxCell id="PYw2qmqrc_JufpcAPU8h-40" value="" style="ellipse;whiteSpace=wrap;html=1;aspect=fixed;strokeColor=none;fillColor=#000000;" vertex="1" parent="1">
          <mxGeometry x="645" y="480" width="10" height="10" as="geometry" />
        </mxCell>
        <mxCell id="PYw2qmqrc_JufpcAPU8h-42" value="" style="ellipse;whiteSpace=wrap;html=1;aspect=fixed;strokeColor=none;fillColor=#000000;" vertex="1" parent="1">
          <mxGeometry x="985" y="439" width="10" height="10" as="geometry" />
        </mxCell>
        <mxCell id="PYw2qmqrc_JufpcAPU8h-43" value="" style="endArrow=none;dashed=1;html=1;rounded=0;entryX=0;entryY=0.5;entryDx=0;entryDy=0;endFill=0;startArrow=classic;startFill=1;exitX=0.25;exitY=0;exitDx=0;exitDy=0;" edge="1" parent="1" source="PYw2qmqrc_JufpcAPU8h-11" target="PYw2qmqrc_JufpcAPU8h-34">
          <mxGeometry width="50" height="50" relative="1" as="geometry">
            <mxPoint x="630" y="400" as="sourcePoint" />
            <mxPoint x="680" y="350" as="targetPoint" />
            <Array as="points">
              <mxPoint x="720" y="307" />
            </Array>
          </mxGeometry>
        </mxCell>
      </root>
    </mxGraphModel>
  </diagram>
</mxfile>
